<?xml version="1.0" encoding="UTF-8"?>
<svg width="24px" height="24px" viewBox="0 0 24 24" version="1.1" xmlns="http://www.w3.org/2000/svg" xmlns:xlink="http://www.w3.org/1999/xlink">
    <!-- Generator: Sketch 47.1 (45422) - http://www.bohemiancoding.com/sketch -->
    <title>Icon/account-circle</title>
    <desc>Created with Sketch.</desc>
    <defs>
        <path d="M1.82899299,12 C1.82899299,17.5 6.5,22.2271897 12,22.2271897 C17.5,22.2271897 21.9658697,17.6135949 21.9658697,12.1135949 C21.9658697,6.61359486 17.5,2 12,2 C6.5,2 1.82899299,6.5 1.82899299,12 Z M12,5 C13.7,5 15,6.3 15,8 C15,9.7 13.7,11 12,11 C10.3,11 9,9.7 9,8 C9,6.3 10.3,5 12,5 L12,5 Z M12,19.2 C9.5,19.2 7.3,17.9 6,16 C6,14 10,12.9 12,12.9 C14,12.9 18,14 18,16 C16.7,17.9 14.5,19.2 12,19.2 L12,19.2 Z" id="path-1"></path>
    </defs>
    <g id="Symbols" stroke="none" stroke-width="1" fill="none" fill-rule="evenodd">
        <g id="Icon/account-circle">
            <mask id="mask-2" fill="white">
                <use xlink:href="#path-1"></use>
            </mask>
            <use id="Shape" fill="#0099D8" xlink:href="#path-1"></use>
        </g>
    </g>
</svg>
