<?xml version="1.0" encoding="UTF-8"?>
<svg width="24px" height="24px" viewBox="0 0 24 24" version="1.1" xmlns="http://www.w3.org/2000/svg" xmlns:xlink="http://www.w3.org/1999/xlink">
    <!-- Generator: Sketch 47.1 (45422) - http://www.bohemiancoding.com/sketch -->
    <title>Icon/add-box</title>
    <desc>Created with Sketch.</desc>
    <defs>
        <path d="M4.69580078,3.35975647 C3.62033081,3.32449341 3.02865601,4.2003479 3.07969666,4.97531128 L3.07969666,19.3054962 C3.02468872,20.0878296 3.60319519,20.9473114 4.69580078,20.924469 L19.0313568,20.924469 C19.8031769,20.9624481 20.6481171,20.4105835 20.6481171,19.3054962 L20.6481171,4.97531128 C20.6737213,4.13237 20.0470428,3.32107544 19.0313568,3.35975647 L4.69580078,3.35975647 Z M17,13 L13,13 L13,17 L11,17 L11,13 L7,13 L7,11 L11,11 L11,7 L13,7 L13,11 L17,11 L17,13 L17,13 Z" id="path-1"></path>
    </defs>
    <g id="Symbols" stroke="none" stroke-width="1" fill="none" fill-rule="evenodd">
        <g id="Icon/add-box">
            <mask id="mask-2" fill="white">
                <use xlink:href="#path-1"></use>
            </mask>
            <use id="Shape" fill="#0099D8" xlink:href="#path-1"></use>
        </g>
    </g>
</svg>
