<?xml version="1.0" encoding="UTF-8"?>
<svg width="24px" height="24px" viewBox="0 0 24 24" version="1.1" xmlns="http://www.w3.org/2000/svg" xmlns:xlink="http://www.w3.org/1999/xlink">
    <!-- Generator: Sketch 47.1 (45422) - http://www.bohemiancoding.com/sketch -->
    <title>Icon/add-circle-outline</title>
    <desc>Created with Sketch.</desc>
    <defs>
        <path d="M13,7 L11,7 L11,11 L7,11 L7,13 L11,13 L11,17 L13,17 L13,13 L17,13 L17,11 L13,11 L13,7 L13,7 Z M1.78317647,12.1299093 C1.78317647,17.6299093 6.5,22.1904184 12,22.1904184 C17.5,22.1904184 22,17.5 22,12 C22,6.5 17.5,2 12,2 C6.5,2 1.78317647,6.6299093 1.78317647,12.1299093 Z M3.78317647,12.1299093 C3.78317647,7.7299093 7.6,4 12,4 C16.4,4 20,7.6 20,12 C20,16.4 16.4,20.1904184 12,20.1904184 C7.6,20.1904184 3.78317647,16.5299093 3.78317647,12.1299093 Z" id="path-1"></path>
    </defs>
    <g id="Symbols" stroke="none" stroke-width="1" fill="none" fill-rule="evenodd">
        <g id="Icon/add-circle-outline">
            <mask id="mask-2" fill="white">
                <use xlink:href="#path-1"></use>
            </mask>
            <use id="Shape" fill="#0099D8" xlink:href="#path-1"></use>
        </g>
    </g>
</svg>
