<?xml version="1.0" encoding="UTF-8"?>
<svg width="24px" height="24px" viewBox="0 0 24 24" version="1.1" xmlns="http://www.w3.org/2000/svg" xmlns:xlink="http://www.w3.org/1999/xlink">
    <!-- Generator: Sketch 47.1 (45422) - http://www.bohemiancoding.com/sketch -->
    <title>Icon/attachment</title>
    <desc>Created with Sketch.</desc>
    <defs>
        <path d="M6.94649709,18 C3.94649709,18 1.44649709,15.5 1.44649709,12.5 C1.44649709,9.5 3.94649709,7 6.94649709,7 L18.1605956,7 C20.3605956,7 22.1605956,8.8 22.1605956,11 C22.1605956,13.2 20.3605956,15 18.1605956,15 L9.5,15 C8.1,15 7,13.9 7,12.5 C7,11.1 8.1,10 9.5,10 L17,10 L17,11.5 L9.5,11.5 C8.9,11.5 8.5,11.9 8.5,12.5 C8.5,13.1 8.9,13.5 9.5,13.5 L18.1605956,13.5 C19.5605956,13.5 20.6605956,12.4 20.6605956,11 C20.6605956,9.6 19.5605956,8.5 18.1605956,8.5 L6.94649709,8.5 C4.74649709,8.5 2.94649709,10.3 2.94649709,12.5 C2.94649709,14.7 4.74649709,16.5 6.94649709,16.5 L17,16.5 L17,18 L7.5,18 L6.94649709,18 Z" id="path-1"></path>
    </defs>
    <g id="Symbols" stroke="none" stroke-width="1" fill="none" fill-rule="evenodd">
        <g id="Icon/attachment">
            <mask id="mask-2" fill="white">
                <use xlink:href="#path-1"></use>
            </mask>
            <use id="Shape" fill="#0099D8" xlink:href="#path-1"></use>
        </g>
    </g>
</svg>
