<?xml version="1.0" encoding="UTF-8"?>
<svg width="24px" height="24px" viewBox="0 0 24 24" version="1.1" xmlns="http://www.w3.org/2000/svg" xmlns:xlink="http://www.w3.org/1999/xlink">
    <!-- Generator: Sketch 47.1 (45422) - http://www.bohemiancoding.com/sketch -->
    <title>Icon/backspace</title>
    <desc>Created with Sketch.</desc>
    <defs>
        <path d="M8.1776556,4.82320563 C7.4776556,4.82320563 6.9776556,5.12320563 6.5776556,5.72320563 L1.37130149,12 L6.62424057,18.6049491 C6.81701401,18.8459159 7.86159409,19.5049491 8.22424057,19.5049491 L20.4228286,19.5049491 C21.5228286,19.5049491 22.4228286,18.6049491 22.4228286,17.5049491 L22.4228286,6.78727258 C22.4228286,5.68727258 21.5228286,4.82320563 20.4228286,4.82320563 L8.1776556,4.82320563 Z M19,15.6 L17.6,17 L14,13.4 L10.4,17 L9,15.6 L12.6,12 L9,8.4 L10.4,7 L14,10.6 L17.6,7 L19,8.4 L15.4,12 L19,15.6 L19,15.6 Z" id="path-1"></path>
    </defs>
    <g id="Symbols" stroke="none" stroke-width="1" fill="none" fill-rule="evenodd">
        <g id="Icon/backspace">
            <mask id="mask-2" fill="white">
                <use xlink:href="#path-1"></use>
            </mask>
            <use id="Shape" fill="#0099D8" xlink:href="#path-1"></use>
        </g>
    </g>
</svg>
