<?xml version="1.0" encoding="UTF-8"?>
<svg width="24px" height="24px" viewBox="0 0 24 24" version="1.1" xmlns="http://www.w3.org/2000/svg" xmlns:xlink="http://www.w3.org/1999/xlink">
    <!-- Generator: Sketch 47.1 (45422) - http://www.bohemiancoding.com/sketch -->
    <title>Icon/call-end</title>
    <desc>Created with Sketch.</desc>
    <defs>
        <path d="M12.8474978,16.4617012 L14.8030534,14.5061457 C15.0697201,14.239479 15.4252756,14.1505901 15.6919423,14.3283679 C16.6697201,14.6839234 17.7363867,14.8617012 18.8919423,14.8617012 C19.4252756,14.8617012 19.7808312,15.2172568 19.7808312,15.7505901 L19.7808312,18.7728123 C19.7808312,19.3061457 19.4252756,19.6617012 18.8919423,19.6617012 C10.5363867,19.6617012 4.21585349,13.3729994 4.21585349,5.01744388 C4.21585349,4.48411054 4.57140904,4.12855499 5.10474237,4.12855499 L8.21585349,4.12855499 C8.74918682,4.12855499 9.10474237,4.48411054 9.10474237,5.01744388 C9.10474237,6.08411054 9.28252015,7.15077721 9.63807571,8.21744388 C9.7269646,8.48411054 9.63807571,8.8396661 9.46029793,9.10633277 L7.41585349,11.0618883 C8.66029793,13.5507772 10.358609,15.1283679 12.8474978,16.4617012 Z" id="path-1"></path>
    </defs>
    <g id="Symbols" stroke="none" stroke-width="1" fill="none" fill-rule="evenodd">
        <g id="Icon/call-end">
            <mask id="mask-2" fill="white">
                <use xlink:href="#path-1"></use>
            </mask>
            <use id="Shape" fill="#0099D8" transform="translate(11.998342, 11.895128) rotate(-225.000000) translate(-11.998342, -11.895128) " xlink:href="#path-1"></use>
        </g>
    </g>
</svg>
