<?xml version="1.0" encoding="UTF-8"?>
<svg width="24px" height="24px" viewBox="0 0 24 24" version="1.1" xmlns="http://www.w3.org/2000/svg" xmlns:xlink="http://www.w3.org/1999/xlink">
    <!-- Generator: Sketch 47.1 (45422) - http://www.bohemiancoding.com/sketch -->
    <title>Icon/check-circle-outline</title>
    <desc>Created with Sketch.</desc>
    <defs>
        <path d="M7.49,9.91 L5.95,11.45 L10.9,16.4 L21.9,5.4 L20.36,3.86 L10.9,13.32 L7.49,9.91 L7.49,9.91 Z M20.8,12 C20.8,16.84 16.84,20.8 12,20.8 C7.16,20.8 3.2,16.84 3.2,12 C3.2,7.16 7.16,3.2 12,3.2 C12.88,3.2 13.65,3.31 14.42,3.53 L16.18,1.77 C14.86,1.33 13.43,1 12,1 C5.95,1 1,5.95 1,12 C1,18.05 5.95,23 12,23 C18.05,23 23,18.05 23,12 L20.8,12 L20.8,12 Z" id="path-1"></path>
    </defs>
    <g id="Symbols" stroke="none" stroke-width="1" fill="none" fill-rule="evenodd">
        <g id="Icon/check-circle-outline">
            <mask id="mask-2" fill="white">
                <use xlink:href="#path-1"></use>
            </mask>
            <use id="Shape" fill="#0099D8" xlink:href="#path-1"></use>
        </g>
    </g>
</svg>
