<?xml version="1.0" encoding="UTF-8"?>
<svg width="24px" height="24px" viewBox="0 0 24 24" version="1.1" xmlns="http://www.w3.org/2000/svg" xmlns:xlink="http://www.w3.org/1999/xlink">
    <!-- Generator: Sketch 47.1 (45422) - http://www.bohemiancoding.com/sketch -->
    <title>Icon/clock</title>
    <desc>Created with Sketch.</desc>
    <defs>
        <path d="M1.8814102,12 C1.8814102,17.5 6.5,22.1184215 12,22.1184215 C17.5,22.1184215 22,17.5 22,12 C22,6.5 17.5,2 12,2 C6.5,2 1.8814102,6.5 1.8814102,12 Z M3.73786255,12 C3.73786255,7.6 7.6,3.80756982 12,3.80756982 C16.4,3.80756982 20,7.6 20,12 C20,16.4 16.4,20.3233432 12,20.3233432 C7.6,20.3233432 3.73786255,16.4 3.73786255,12 Z M12.5,7 L11,7 L11,13 L16.2,16.2 L17,14.9 L12.5,12.2 L12.5,7 Z" id="path-1"></path>
    </defs>
    <g id="Symbols" stroke="none" stroke-width="1" fill="none" fill-rule="evenodd">
        <g id="Icon/clock">
            <mask id="mask-2" fill="white">
                <use xlink:href="#path-1"></use>
            </mask>
            <use id="Shape" fill="#0099D8" xlink:href="#path-1"></use>
        </g>
    </g>
</svg>
