<?xml version="1.0" encoding="UTF-8"?>
<svg width="24px" height="24px" viewBox="0 0 24 24" version="1.1" xmlns="http://www.w3.org/2000/svg" xmlns:xlink="http://www.w3.org/1999/xlink">
    <!-- Generator: Sketch 47.1 (45422) - http://www.bohemiancoding.com/sketch -->
    <title>Icon/content-cut</title>
    <desc>Created with Sketch.</desc>
    <defs>
        <path d="M5.80952381,3 C3.71428571,3 2,4.71 2,6.8 C2,8.89 3.71428571,10.6 5.80952381,10.6 C6.38095238,10.6 6.85714286,10.505 7.33333333,10.22 L9.61904762,12.5 L7.33333333,14.78 C6.85714286,14.495 6.38095238,14.4 5.80952381,14.4 C3.71428571,14.4 2,16.11 2,18.2 C2,20.29 3.71428571,22 5.80952381,22 C7.9047619,22 9.61904762,20.29 9.61904762,18.2 C9.61904762,17.63 9.52380952,17.155 9.23809524,16.68 L11.5238095,14.4 L17.9109746,20.6941282 L21.6107722,20.6941282 L9.23809524,8.32 C9.52380952,7.845 9.61904762,7.37 9.61904762,6.8 C9.61904762,4.71 7.9047619,3 5.80952381,3 Z M5.80952381,8.7 C4.76190476,8.7 3.9047619,7.845 3.9047619,6.8 C3.9047619,5.755 4.76190476,4.9 5.80952381,4.9 C6.85714286,4.9 7.71428571,5.755 7.71428571,6.8 C7.71428571,7.845 6.85714286,8.7 5.80952381,8.7 L5.80952381,8.7 Z M5.80952381,20.1 C4.76190476,20.1 3.9047619,19.245 3.9047619,18.2 C3.9047619,17.155 4.76190476,16.3 5.80952381,16.3 C6.85714286,16.3 7.71428571,17.155 7.71428571,18.2 C7.71428571,19.245 6.85714286,20.1 5.80952381,20.1 L5.80952381,20.1 Z M11.5238095,12.025 C11.8095238,12.025 12,12.215 12,12.5 C12,12.785 11.8095238,12.975 11.5238095,12.975 C11.2380952,12.975 11.047619,12.785 11.047619,12.5 C11.047619,12.215 11.2380952,12.025 11.5238095,12.025 L11.5238095,12.025 Z M18.2700469,4.58285373 L12.4761905,9.65 L14.3809524,11.55 L21.3040612,4.58285373 L18.2700469,4.58285373 Z" id="path-1"></path>
    </defs>
    <g id="Symbols" stroke="none" stroke-width="1" fill="none" fill-rule="evenodd">
        <g id="Icon/content-cut">
            <mask id="mask-2" fill="white">
                <use xlink:href="#path-1"></use>
            </mask>
            <use id="Shape" fill="#0099D8" xlink:href="#path-1"></use>
        </g>
    </g>
</svg>
