<?xml version="1.0" encoding="UTF-8"?>
<svg width="24px" height="24px" viewBox="0 0 24 24" version="1.1" xmlns="http://www.w3.org/2000/svg" xmlns:xlink="http://www.w3.org/1999/xlink">
    <!-- Generator: Sketch 47.1 (45422) - http://www.bohemiancoding.com/sketch -->
    <title>Icon/content-copy</title>
    <desc>Created with Sketch.</desc>
    <defs>
        <path d="M17,1 L5,1 C3.9,1 3,1.9 3,3 L3,17 L5,17 L5,3 L17,3 L17,1 L17,1 Z M20,5 L9,5 C7.9,5 7,5.9 7,7 L7,21 C7,22.1 7.9,23 9,23 L20,23 C21.1,23 22,22.1 22,21 L22,7 C22,5.9 21.1,5 20,5 L20,5 Z M20,21 L9,21 L9,7 L20,7 L20,21 L20,21 Z" id="path-1"></path>
    </defs>
    <g id="Symbols" stroke="none" stroke-width="1" fill="none" fill-rule="evenodd">
        <g id="Icon/content-copy">
            <mask id="mask-2" fill="white">
                <use xlink:href="#path-1"></use>
            </mask>
            <use id="Shape" fill="#0099D8" xlink:href="#path-1"></use>
        </g>
    </g>
</svg>
