<?xml version="1.0" encoding="UTF-8"?>
<svg width="24px" height="24px" viewBox="0 0 24 24" version="1.1" xmlns="http://www.w3.org/2000/svg" xmlns:xlink="http://www.w3.org/1999/xlink">
    <!-- Generator: Sketch 47.1 (45422) - http://www.bohemiancoding.com/sketch -->
    <title>Icon/content-paste</title>
    <desc>Created with Sketch.</desc>
    <defs>
        <path d="M14.8,3.15242951 C14.4,1.95242951 13.3,1.15242951 12,1.15242951 C10.7,1.15242951 9.6,1.95242951 9.2,3.15242951 L5,3.15242951 C3.73814254,3.15242951 2.87609607,3.76554436 2.87609607,5.1949011 L2.87609607,20.7994276 C2.87609607,21.8994276 3.9,22.7569561 5,22.7569561 L19,22.7569561 C20.1,22.7569561 20.850719,21.9726975 20.850719,20.8726975 L20.850719,5.26817092 C20.850719,4.02794126 20.1800971,3.15242951 19,3.15242951 L14.8,3.15242951 Z M13.0228686,4.39376229 C13.0228686,4.99376229 12.6228686,5.39376229 12.0228686,5.39376229 C11.4228686,5.39376229 11.0228686,4.99376229 11.0228686,4.39376229 C11.0228686,3.79376229 11.4228686,3.39376229 12.0228686,3.39376229 C12.6228686,3.39376229 13.0228686,3.79376229 13.0228686,4.39376229 Z M19,20.8051471 L5,20.8051471 L5,5.61628733 L7,5.61628733 L7,8.61628733 L17,8.61628733 L17,5.61628733 L19,5.61628733 L19,20.8051471 Z" id="path-1"></path>
    </defs>
    <g id="Symbols" stroke="none" stroke-width="1" fill="none" fill-rule="evenodd">
        <g id="Icon/content-paste">
            <mask id="mask-2" fill="white">
                <use xlink:href="#path-1"></use>
            </mask>
            <use id="Shape" fill="#0099D8" xlink:href="#path-1"></use>
        </g>
    </g>
</svg>
