<?xml version="1.0" encoding="UTF-8"?>
<svg width="24px" height="24px" viewBox="0 0 24 24" version="1.1" xmlns="http://www.w3.org/2000/svg" xmlns:xlink="http://www.w3.org/1999/xlink">
    <!-- Generator: Sketch 47.1 (45422) - http://www.bohemiancoding.com/sketch -->
    <title>Icon/date</title>
    <desc>Created with Sketch.</desc>
    <defs>
        <path d="M17,13 L12,13 L12,18 L17,18 L17,13 L17,13 Z M16,2.54563905 L16,4.54563905 L8,4.54563905 L8,2.54563905 L6,2.54563905 L6,4.54563905 L4.70409201,4.54563905 C3.60409201,4.54563905 3.08578491,4.97569275 3.07693481,5.96121216 L3.07693481,20.2937775 C3.04319763,21.3516693 3.85020447,21.9513245 4.68652344,21.9221344 L19.0232697,21.9221344 C19.8283386,21.9660797 20.6821747,21.3444977 20.641983,20.2937775 L20.641983,5.97943115 C20.641983,4.9928894 20.1,4.54563905 19,4.54563905 L18,4.54563905 L18,2.54563905 L16,2.54563905 Z M19,20 L5,20 L5,9 L19,9 L19,20 L19,20 Z" id="path-1"></path>
    </defs>
    <g id="Symbols" stroke="none" stroke-width="1" fill="none" fill-rule="evenodd">
        <g id="Icon/date">
            <mask id="mask-2" fill="white">
                <use xlink:href="#path-1"></use>
            </mask>
            <use id="Shape" fill="#0099D8" xlink:href="#path-1"></use>
        </g>
    </g>
</svg>
