<?xml version="1.0" encoding="UTF-8"?>
<svg width="24px" height="24px" viewBox="0 0 24 24" version="1.1" xmlns="http://www.w3.org/2000/svg" xmlns:xlink="http://www.w3.org/1999/xlink">
    <!-- Generator: Sketch 47.1 (45422) - http://www.bohemiancoding.com/sketch -->
    <title>Icon/drive-pdf Copy 2</title>
    <desc>Created with Sketch.</desc>
    <defs>
        <path d="M11.6046448,7.38046265 C11.6046448,7.08046265 11.4538734,6.14016418 11.3538734,6.30407715 C11.2538734,6.46799011 11.1383972,7.01234436 11.0939636,7.31193542 C11.0761719,7.80021667 11.1631317,8.15357971 11.3,8.6 C11.3766174,8.90036011 11.6046448,7.68046265 11.6046448,7.38046265 Z M7.25714111,16.2622528 C6.78808729,16.7271014 6.55423567,17.237293 6.5,17.4 C7.0614624,17.1890564 8.05847168,16.4026489 8.3,15.5 C8.3,15.5 7.65293114,15.8700112 7.25714111,16.2622528 Z M15.3990784,13.6491241 C15.3990784,13.6491241 15.8794403,14.0089661 16.4257202,14.1 C16.8991824,14.1788993 17.7144928,14.2 17.6,14.1 C17.5531165,14.0590511 17.0740075,13.8062005 16.6575928,13.7127075 C16.0570935,13.577884 15.2272583,13.523764 15.3990784,13.6491241 Z M4.62101589,3.00261531 C3.8216537,2.95569453 2.96797023,3.54195247 3.00259243,4.61366878 L3.00259243,18.941687 C2.95321498,19.7661193 3.61343227,20.6204589 4.62101589,20.5612701 L18.9369339,20.5612701 C19.7454208,20.6066803 20.6114639,20.0011047 20.5567764,18.941687 L20.5567764,4.61366878 C20.6102127,3.82776485 20.0037216,2.95335994 18.9586319,3.00261531 L4.62101589,3.00261531 Z M17,15 C16.2,15 15,14.8 14,14.3 C12.3,14.5 11,14.7 10,15.1 C9.9,15.1 8.47534269,17.566424 6.76716614,18.2223206 C6.05236816,18.4237061 5.87620544,18.1489105 5.85206604,18.1086578 C5.82792664,18.0684052 5.6852417,17.7709351 5.8,17.3 C5.9,16.8 6.5,15.9 7.7,15.2 C7.9,15.1 8.2,14.9 8.6,14.7 C8.9,14.2 9.2,13.6 9.6,12.9 C10.1,11.9 10.4,10.9 10.7,10 C10.3,8.8 10.2032471,7.60627747 10.5,6.7 C10.7337494,6.01541138 11.1337891,5.78411865 11.3781586,5.78363037 C11.6225281,5.78314209 11.796402,5.87960815 12,6.09288025 C12.4781494,6.72172546 12.5,8.4 12.1,9.7 L12.1,9.8 C12.5,10.9 13.1,11.8 13.7,12.4 C14,12.6 14.2,12.8 14.6,13 C15.1,13 15.5,12.9 15.9,12.9 C16.8580755,12.9 17.8427601,13.1848378 18.2687144,13.6658756 C18.3832611,13.8121322 18.466206,13.9803401 18.466206,14.1803401 C18.466206,14.3601406 18.3813157,14.5315569 18.2443905,14.6684697 C18.0522337,14.8404008 17.6460095,15 17,15 Z M10.4,13.3 C10.2,13.7 10,14 9.8,14.4 C9.8,14.4 12.5,13.6 13.3,13.5 C13.1,13.4 13,13.3 12.9,13.2 C12.4,12.6 11.8,11.8 11.4,10.9 C11.2,11.6 10.8,12.4 10.4,13.3 Z" id="path-1"></path>
    </defs>
    <g id="Symbols" stroke="none" stroke-width="1" fill="none" fill-rule="evenodd">
        <g id="Icon/drive-pdf-Copy-2">
            <mask id="mask-2" fill="white">
                <use xlink:href="#path-1"></use>
            </mask>
            <use id="Shape" fill="#0099D8" xlink:href="#path-1"></use>
        </g>
    </g>
</svg>
