<?xml version="1.0" encoding="UTF-8"?>
<svg width="24px" height="24px" viewBox="0 0 24 24" version="1.1" xmlns="http://www.w3.org/2000/svg" xmlns:xlink="http://www.w3.org/1999/xlink">
    <!-- Generator: Sketch 47.1 (45422) - http://www.bohemiancoding.com/sketch -->
    <title>Icon/drive-ms-excel</title>
    <desc>Created with Sketch.</desc>
    <defs>
        <path d="M4.70494281,3.35347789 C3.62538147,3.334198 3.02963257,4.18309021 3.07992554,4.97644043 L3.07992554,19.3016357 C3.03260803,20.1032867 3.6321106,20.9694977 4.70494281,20.924408 L19.0207367,20.924408 C20.0030975,20.9564819 20.6887512,20.173111 20.6399231,19.3016357 L20.6399231,4.97644043 C20.6945648,3.92153931 19.7922668,3.30679321 19.0207367,3.35347789 L4.70494281,3.35347789 Z M16.2,17 L14.2,17 L12,13.2 L9.8,17 L7.8,17 L11,12 L7.8,7 L9.8,7 L12,10.8 L14.2,7 L16.2,7 L13,12 L16.2,17 L16.2,17 Z" id="path-1"></path>
    </defs>
    <g id="Symbols" stroke="none" stroke-width="1" fill="none" fill-rule="evenodd">
        <g id="Icon/drive-ms-excel">
            <mask id="mask-2" fill="white">
                <use xlink:href="#path-1"></use>
            </mask>
            <use id="Shape" fill="#0099D8" xlink:href="#path-1"></use>
        </g>
    </g>
</svg>
