<?xml version="1.0" encoding="UTF-8"?>
<svg width="24px" height="24px" viewBox="0 0 24 24" version="1.1" xmlns="http://www.w3.org/2000/svg" xmlns:xlink="http://www.w3.org/1999/xlink">
    <!-- Generator: Sketch 47.1 (45422) - http://www.bohemiancoding.com/sketch -->
    <title>Icon/exit-to-app</title>
    <desc>Created with Sketch.</desc>
    <defs>
        <path d="M11.5,17 L16.5,12 L11.5,7 L10.1,8.4 L12.7,11 L3.07657011,11 L3.07657011,13 L12.7,13 L10.1,15.6 L11.5,17 Z M4.69841003,3.35383606 C3.59841003,3.35383606 3.0275116,4.19378662 3.07657011,4.96960449 L3.07657011,9 L5,9 L5,4.96960449 L19,4.96960449 L19,19 L5,19 L5,15 L3.07657011,15 L3.07657011,19 C2.95318976,20.3404821 3.7931366,21.0398712 5,20.9253398 L19,20.9253398 C20.1127167,20.9459076 20.7549133,20.1092072 20.6469269,19 L20.6469269,4.96960449 C20.6469269,3.86960449 19.7940826,3.32876587 19.0238037,3.35383606 L4.69841003,3.35383606 Z" id="path-1"></path>
    </defs>
    <g id="Symbols" stroke="none" stroke-width="1" fill="none" fill-rule="evenodd">
        <g id="Icon/exit-to-app">
            <mask id="mask-2" fill="white">
                <use xlink:href="#path-1"></use>
            </mask>
            <use id="Shape" fill="#0099D8" xlink:href="#path-1"></use>
        </g>
    </g>
</svg>
