<?xml version="1.0" encoding="UTF-8"?>
<svg width="24px" height="24px" viewBox="0 0 24 24" version="1.1" xmlns="http://www.w3.org/2000/svg" xmlns:xlink="http://www.w3.org/1999/xlink">
    <!-- Generator: Sketch 47.1 (45422) - http://www.bohemiancoding.com/sketch -->
    <title>Icon/favorite-outline</title>
    <desc>Created with Sketch.</desc>
    <defs>
        <path d="M12.5,4.98333333 C11.455,3.75555556 9.84,3 8.225,3 C5.28,3 3,5.26666667 3,8.19444444 C3,11.7833333 6.23,14.7111111 11.17,19.0555556 L12.5,20.1420542 L13.83,19.0555556 C18.675,14.6166667 22,11.6888889 22,8.19444444 C22,5.26666667 19.72,3 16.775,3 C15.16,3 13.545,3.75555556 12.5,4.98333333 Z M12.5,17.7539894 C12.5,17.7539894 4.9,10.9333333 4.9,8.19444444 C4.9,6.30555556 6.325,4.88888889 8.225,4.88888889 C9.65,4.88888889 11.075,5.83333333 11.645,7.15555556 L13.45,7.15555556 C13.925,5.83333333 15.35,4.88888889 16.775,4.88888889 C18.675,4.88888889 20.1,6.30555556 20.1,8.19444444 C20.1,10.9333333 12.5,17.7539894 12.5,17.7539894 Z" id="path-1"></path>
    </defs>
    <g id="Symbols" stroke="none" stroke-width="1" fill="none" fill-rule="evenodd">
        <g id="Icon/favorite-outline">
            <mask id="mask-2" fill="white">
                <use xlink:href="#path-1"></use>
            </mask>
            <use id="Shape" fill="#0099D8" xlink:href="#path-1"></use>
        </g>
    </g>
</svg>
