<?xml version="1.0" encoding="UTF-8"?>
<svg width="24px" height="24px" viewBox="0 0 24 24" version="1.1" xmlns="http://www.w3.org/2000/svg" xmlns:xlink="http://www.w3.org/1999/xlink">
    <!-- Generator: Sketch 47.1 (45422) - http://www.bohemiancoding.com/sketch -->
    <title>Icon/forum</title>
    <desc>Created with Sketch.</desc>
    <defs>
        <path d="M21,6 L19,6 L19,15 L6,15 L6,17 C6,17.6 6.4,18 7,18 L18,18 L22,22 L22,7 C22,6.4 21.6,6 21,6 L21,6 Z M17,12 L17,3 C17,2.4 16.6,2 16,2 L3,2 C2.4,2 2,2.4 2,3 L2,17 L6,13 L16,13 C16.6,13 17,12.6 17,12 L17,12 Z" id="path-1"></path>
    </defs>
    <g id="Symbols" stroke="none" stroke-width="1" fill="none" fill-rule="evenodd">
        <g id="Icon/forum">
            <mask id="mask-2" fill="white">
                <use xlink:href="#path-1"></use>
            </mask>
            <use id="Shape" fill="#0099D8" xlink:href="#path-1"></use>
        </g>
    </g>
</svg>
