<?xml version="1.0" encoding="UTF-8"?>
<svg width="24px" height="24px" viewBox="0 0 24 24" version="1.1" xmlns="http://www.w3.org/2000/svg" xmlns:xlink="http://www.w3.org/1999/xlink">
    <!-- Generator: Sketch 47.1 (45422) - http://www.bohemiancoding.com/sketch -->
    <title>Icon/group</title>
    <desc>Created with Sketch.</desc>
    <defs>
        <path d="M19.0011394,7.75378312 C19.0011394,6.05378312 17.7011394,4.75378312 16.0011394,4.75378312 C14.3011394,4.75378312 13.0011394,6.05378312 13.0011394,7.75378312 C13.0011394,9.45378312 14.3011394,10.7537831 16.0011394,10.7537831 C17.7011394,10.7537831 19.0011394,9.45378312 19.0011394,7.75378312 Z M11.4583269,7.75378312 C11.4583269,6.05378312 10.1583269,4.75378312 8.45832687,4.75378312 C6.75832687,4.75378312 5.45832687,6.05378312 5.45832687,7.75378312 C5.45832687,9.45378312 6.75832687,10.7537831 8.45832687,10.7537831 C10.1583269,10.7537831 11.4583269,9.45378312 11.4583269,7.75378312 Z M1.25153869,16.9875022 L1.25153869,19.4875022 L15.8075211,19.5138103 L15.8075211,16.9875022 C15.8075211,14.6875022 11.1075211,13.4875022 8.80752109,13.4875022 C6.50752109,13.4875022 1.25153869,14.6875022 1.25153869,16.9875022 Z M15.0189091,13.592889 C16.2189091,14.392889 17.0189091,15.592889 17.0189091,16.992889 L17.0189091,19.492889 L22.5261269,19.492889 L22.5261269,16.992889 C22.5261269,14.692889 18.3189091,13.492889 16.0189091,13.492889 C15.7189091,13.492889 15.4189091,13.492889 15.0189091,13.592889 Z" id="path-1"></path>
    </defs>
    <g id="Symbols" stroke="none" stroke-width="1" fill="none" fill-rule="evenodd">
        <g id="Icon/group">
            <mask id="mask-2" fill="white">
                <use xlink:href="#path-1"></use>
            </mask>
            <use id="Shape" fill="#0099D8" xlink:href="#path-1"></use>
        </g>
    </g>
</svg>
