<?xml version="1.0" encoding="UTF-8"?>
<svg width="24px" height="24px" viewBox="0 0 24 24" version="1.1" xmlns="http://www.w3.org/2000/svg" xmlns:xlink="http://www.w3.org/1999/xlink">
    <!-- Generator: Sketch 47.1 (45422) - http://www.bohemiancoding.com/sketch -->
    <title>Icon/group-add</title>
    <desc>Created with Sketch.</desc>
    <defs>
        <path d="M8.33333333,11.6153846 L5.58333333,11.6153846 L5.58333333,8.84615385 L3.75,8.84615385 L3.75,11.6153846 L1,11.6153846 L1,13.4615385 L3.75,13.4615385 L3.75,16.2307692 L5.58333333,16.2307692 L5.58333333,13.4615385 L8.33333333,13.4615385 L8.33333333,11.6153846 L8.33333333,11.6153846 Z M17.5,12.5384615 C19.0583333,12.5384615 20.25,11.3384615 20.25,9.76923077 C20.25,8.2 19.0583333,7 17.5,7 C17.225,7 16.95,7.09230769 16.675,7.09230769 C17.225,7.92307692 17.5,8.75384615 17.5,9.76923077 C17.5,10.7846154 17.225,11.6153846 16.675,12.4461538 C16.95,12.4461538 17.225,12.5384615 17.5,12.5384615 L17.5,12.5384615 Z M12.9166667,12.5384615 C14.475,12.5384615 15.6666667,11.3384615 15.6666667,9.76923077 C15.6666667,8.2 14.475,7 12.9166667,7 C11.3583333,7 10.1666667,8.2 10.1666667,9.76923077 C10.1666667,11.3384615 11.3583333,12.5384615 12.9166667,12.5384615 L12.9166667,12.5384615 Z M18.9666667,14.5692308 C19.7,15.2153846 20.25,16.1384615 20.25,17.1538462 L20.25,19 L23,19 L23,17.1538462 C23,15.7692308 20.8,14.8461538 18.9666667,14.5692308 L18.9666667,14.5692308 Z M12.9166667,14.3846154 C11.0833333,14.3846154 7.41666667,15.3076923 7.41666667,17.1538462 L7.41666667,19 L18.4166667,19 L18.4166667,17.1538462 C18.4166667,15.3076923 14.75,14.3846154 12.9166667,14.3846154 L12.9166667,14.3846154 Z" id="path-1"></path>
    </defs>
    <g id="Symbols" stroke="none" stroke-width="1" fill="none" fill-rule="evenodd">
        <g id="Icon/group-add">
            <mask id="mask-2" fill="white">
                <use xlink:href="#path-1"></use>
            </mask>
            <use id="Shape" fill="#0099D8" xlink:href="#path-1"></use>
        </g>
    </g>
</svg>
