<?xml version="1.0" encoding="UTF-8"?>
<svg width="24px" height="24px" viewBox="0 0 24 24" version="1.1" xmlns="http://www.w3.org/2000/svg" xmlns:xlink="http://www.w3.org/1999/xlink">
    <!-- Generator: Sketch 47.1 (45422) - http://www.bohemiancoding.com/sketch -->
    <title>Icon/https</title>
    <desc>Created with Sketch.</desc>
    <defs>
        <path d="M17,9 L17,6.53383974 C17,3.73383974 14.8,1.53383974 12,1.53383974 C9.2,1.53383974 7,3.73383974 7,6.53383974 L7,9 L6,9 C4.9,9 4.49106731,9.85558487 4.49106731,10.9555849 L4.49106731,20.9130408 C4.49106731,22.0130408 5.26069336,22.733908 6.36069336,22.733908 L17.3537104,22.733908 C18.4537104,22.733908 19.2165112,22.0130408 19.2165112,20.9130408 L19.2365114,10.9555849 C19.2365114,9.85558487 19.1,9 18,9 L17,9 Z M12,18 C10.9,18 10,17.1 10,16 C10,14.9 10.9,14 12,14 C13.1,14 14,14.9 14,16 C14,17.1 13.1,18 12,18 L12,18 Z M8.9,9 L8.9,6.53383974 C8.9,4.83383974 10.3,3.43383974 12,3.43383974 C13.7,3.43383974 15.1,4.83383974 15.1,6.53383974 L15.1,9 L8.9,9 Z" id="path-1"></path>
    </defs>
    <g id="Symbols" stroke="none" stroke-width="1" fill="none" fill-rule="evenodd">
        <g id="Icon/https">
            <mask id="mask-2" fill="white">
                <use xlink:href="#path-1"></use>
            </mask>
            <use id="Shape" fill="#0099D8" xlink:href="#path-1"></use>
        </g>
    </g>
</svg>
