<?xml version="1.0" encoding="UTF-8"?>
<svg width="24px" height="24px" viewBox="0 0 24 24" version="1.1" xmlns="http://www.w3.org/2000/svg" xmlns:xlink="http://www.w3.org/1999/xlink">
    <!-- Generator: Sketch 47.1 (45422) - http://www.bohemiancoding.com/sketch -->
    <title>Icon/info-outline</title>
    <desc>Created with Sketch.</desc>
    <defs>
        <path d="M11,17 L13,17 L13,11 L11,11 L11,17 L11,17 Z M1.82583272,12 C1.82583272,17.5 6.5,22.2701277 12,22.2701277 C17.5,22.2701277 21.9621717,17.5 21.9621717,12 C21.9621717,6.5 17.5,2.16044409 12,2.16044409 C6.5,2.16044409 1.82583272,6.5 1.82583272,12 Z M3.82583272,12 C3.82583272,7.6 7.6,4.16044409 12,4.16044409 C16.4,4.16044409 19.9621717,7.6 19.9621717,12 C19.9621717,16.4 16.4,20.2701277 12,20.2701277 C7.6,20.2701277 3.82583272,16.4 3.82583272,12 Z M11,9 L13,9 L13,7 L11,7 L11,9 L11,9 Z" id="path-1"></path>
    </defs>
    <g id="Symbols" stroke="none" stroke-width="1" fill="none" fill-rule="evenodd">
        <g id="Icon/info-outline">
            <mask id="mask-2" fill="white">
                <use xlink:href="#path-1"></use>
            </mask>
            <use id="Shape" fill="#0099D8" xlink:href="#path-1"></use>
        </g>
    </g>
</svg>
