<?xml version="1.0" encoding="UTF-8"?>
<svg width="24px" height="25px" viewBox="0 0 24 25" version="1.1" xmlns="http://www.w3.org/2000/svg" xmlns:xlink="http://www.w3.org/1999/xlink">
    <!-- Generator: Sketch 47.1 (45422) - http://www.bohemiancoding.com/sketch -->
    <title>Icon/language</title>
    <desc>Created with Sketch.</desc>
    <defs>
        <path d="M1.89526647,12.102821 C1.89526647,17.602821 6.5,22.2056419 12,22.2056419 C17.5,22.2056419 22,17.5 22,12 C22,6.5 17.5,2 12,2 C6.5,2 1.89526647,6.60282097 1.89526647,12.102821 Z M18.9,8 L16,8 C15.7,6.7 15.2,5.6 14.6,4.4 C16.4,5.1 18,6.3 18.9,8 L18.9,8 Z M12,4 C12.8,5.2 13.5,6.5 13.9,8 L10.1,8 C10.5,6.6 11.2,5.2 12,4 L12,4 Z M4.3,14 C4.1,13.4 4,12.7 4,12 C4,11.3 4.1,10.6 4.3,10 L7.7,10 C7.6,10.7 7.6,11.3 7.6,12 C7.6,12.7 7.7,13.3 7.7,14 L4.3,14 L4.3,14 Z M5.1,16 L8,16 C8.3,17.3 8.8,18.4 9.4,19.6 C7.6,18.9 6,17.7 5.1,16 L5.1,16 Z M8,8 L5.1,8 C6.1,6.3 7.6,5.1 9.4,4.4 C8.8,5.6 8.3,6.7 8,8 L8,8 Z M12,20 C11.2,18.8 10.5,17.5 10.1,16 L13.9,16 C13.5,17.4 12.8,18.8 12,20 L12,20 Z M14.3,14 L9.7,14 C9.6,13.3 9.5,12.7 9.5,12 C9.5,11.3 9.6,10.7 9.7,10 L14.4,10 C14.5,10.7 14.6,11.3 14.6,12 C14.6,12.7 14.4,13.3 14.3,14 L14.3,14 Z M14.6,19.6 C15.2,18.5 15.7,17.3 16,16 L18.9,16 C18,17.7 16.4,18.9 14.6,19.6 L14.6,19.6 Z M16.4,14 C16.5,13.3 16.5,12.7 16.5,12 C16.5,11.3 16.4,10.7 16.4,10 L19.8,10 C20,10.6 20.1,11.3 20.1,12 C20.1,12.7 20,13.4 19.8,14 L16.4,14 L16.4,14 Z" id="path-1"></path>
    </defs>
    <g id="Symbols" stroke="none" stroke-width="1" fill="none" fill-rule="evenodd">
        <g id="Icon/language">
            <mask id="mask-2" fill="white">
                <use xlink:href="#path-1"></use>
            </mask>
            <use id="Shape" fill="#0099D8" xlink:href="#path-1"></use>
        </g>
    </g>
</svg>
