<?xml version="1.0" encoding="UTF-8"?>
<svg width="24px" height="24px" viewBox="0 0 24 24" version="1.1" xmlns="http://www.w3.org/2000/svg" xmlns:xlink="http://www.w3.org/1999/xlink">
    <!-- Generator: Sketch 47.1 (45422) - http://www.bohemiancoding.com/sketch -->
    <title>Icon/link</title>
    <desc>Created with Sketch.</desc>
    <defs>
        <path d="M8,13 L16,13 L16,11 L8,11 L8,13 L8,13 Z M8,7.9 L11,7.9 L11,6 L8,6 C4.7,6 1.76945919,8.7 1.76945919,12 C1.76945919,15.3 4.7,18 8,18 L11,18 L11,16.1 L8,16.1 C5.7,16.1 3.66945919,14.3 3.66945919,12 C3.66945919,9.7 5.7,7.9 8,7.9 Z M16,6 L13,6 L13,7.9 L16,7.9 C18.3,7.9 20.1,9.7 20.1,12 C20.1,14.3 18.3,16.1 16,16.1 L13,16.1 L13,18 L16,18 C19.3,18 22,15.3 22,12 C22,8.7 19.3,6 16,6 L16,6 Z" id="path-1"></path>
    </defs>
    <g id="Symbols" stroke="none" stroke-width="1" fill="none" fill-rule="evenodd">
        <g id="Icon/link">
            <mask id="mask-2" fill="white">
                <use xlink:href="#path-1"></use>
            </mask>
            <use id="Shape" fill="#0099D8" xlink:href="#path-1"></use>
        </g>
    </g>
</svg>
