<?xml version="1.0" encoding="UTF-8"?>
<svg width="24px" height="24px" viewBox="0 0 24 24" version="1.1" xmlns="http://www.w3.org/2000/svg" xmlns:xlink="http://www.w3.org/1999/xlink">
    <!-- Generator: Sketch 47.1 (45422) - http://www.bohemiancoding.com/sketch -->
    <title>Icon/list</title>
    <desc>Created with Sketch.</desc>
    <defs>
        <path d="M3.07050469,13 L5,13 L5,11 L3.07050469,11 L3.07050469,13 Z M3.07050469,17 L5,17 L5,15 L3.07050469,15 L3.07050469,17 Z M3.07050469,9 L5,9 L5,7 L3.07050469,7 L3.07050469,9 Z M20.634449,13 L20.634449,11 L7,11 L7,13 L20.634449,13 Z M20.634449,17 L20.634449,15 L7,15 L7,17 L20.634449,17 Z M7,9 L20.634449,9 L20.634449,7 L7,7 L7,9 Z" id="path-1"></path>
    </defs>
    <g id="Symbols" stroke="none" stroke-width="1" fill="none" fill-rule="evenodd">
        <g id="Icon/list">
            <mask id="mask-2" fill="white">
                <use xlink:href="#path-1"></use>
            </mask>
            <use id="Shape" fill="#0099D8" xlink:href="#path-1"></use>
        </g>
    </g>
</svg>
