<?xml version="1.0" encoding="UTF-8"?>
<svg width="24px" height="24px" viewBox="0 0 24 24" version="1.1" xmlns="http://www.w3.org/2000/svg" xmlns:xlink="http://www.w3.org/1999/xlink">
    <!-- Generator: Sketch 47.1 (45422) - http://www.bohemiancoding.com/sketch -->
    <title>Icon/live-help</title>
    <desc>Created with Sketch.</desc>
    <defs>
        <path d="M5,1.73295435 C3.9,1.73295435 3.07990113,2.54651132 3.07990113,3.64651132 L3.07990113,18 C3.07990113,19.1 3.9,20 5,20 L9,20 L12.0118658,22.7294032 L15,20 L19,20 C20.1,20 20.6546686,19.1 20.6546686,18 L20.6546686,3.64651132 C20.6546686,2.54651132 20.1,1.73295435 19,1.73295435 L5,1.73295435 Z M13,18 L11,18 L11,16 L13,16 L13,18 L13,18 Z M15.1,10.3 L14.2,11.2 C13.4,11.9 13,12.5 13,14 L11,14 L11,13.5 C11,12.4 11.4,11.4 12.2,10.7 L13.4,9.4 C13.8,9.1 14,8.6 14,8 C14,6.9 13.1,6 12,6 C10.9,6 10,6.9 10,8 L8,8 C8,5.8 9.8,4 12,4 C14.2,4 16,5.8 16,8 C16,8.9 15.6,9.7 15.1,10.3 L15.1,10.3 Z" id="path-1"></path>
    </defs>
    <g id="Symbols" stroke="none" stroke-width="1" fill="none" fill-rule="evenodd">
        <g id="Icon/live-help">
            <mask id="mask-2" fill="white">
                <use xlink:href="#path-1"></use>
            </mask>
            <use id="Shape" fill="#0099D8" xlink:href="#path-1"></use>
        </g>
    </g>
</svg>
