<?xml version="1.0" encoding="UTF-8"?>
<svg width="24px" height="24px" viewBox="0 0 24 24" version="1.1" xmlns="http://www.w3.org/2000/svg" xmlns:xlink="http://www.w3.org/1999/xlink">
    <!-- Generator: Sketch 47.1 (45422) - http://www.bohemiancoding.com/sketch -->
    <title>Icon/lock-outline</title>
    <desc>Created with Sketch.</desc>
    <defs>
        <path d="M17,9 L17,6.7428094 C17,3.9428094 14.8,1.7428094 12,1.7428094 C9.2,1.7428094 7,3.9428094 7,6.7428094 L7,9 L6,9 C4.9,9 4.48817213,9.82586989 4.48817213,10.9258699 L4.48817213,20.5842396 C4.48817213,21.6842396 5.12847012,22.7344988 6.22847012,22.7344988 L17.4805317,22.7344988 C18.5805317,22.7344988 19.2227058,21.6842396 19.2227058,20.5842396 L19.2227058,10.9258699 C19.2227058,9.82586989 19.1,9 18,9 L17,9 Z M15.1,6.7428094 L15.1,9 L8.9,9 L8.9,6.7428094 C8.9,5.0428094 10.3,3.6428094 12,3.6428094 C13.7,3.6428094 15.1,5.0428094 15.1,6.7428094 Z M17.4805317,20.7300417 L6.22847012,20.7300417 L6.22847012,11 L17.4805317,11 L17.4805317,20.7300417 Z M12,18 C13.1,18 14,17.1 14,16 C14,14.9 13.1,14 12,14 C10.9,14 10,14.9 10,16 C10,17.1 10.9,18 12,18 L12,18 Z" id="path-1"></path>
    </defs>
    <g id="Symbols" stroke="none" stroke-width="1" fill="none" fill-rule="evenodd">
        <g id="Icon/lock-outline">
            <mask id="mask-2" fill="white">
                <use xlink:href="#path-1"></use>
            </mask>
            <use id="Shape" fill="#0099D8" xlink:href="#path-1"></use>
        </g>
    </g>
</svg>
