<?xml version="1.0" encoding="UTF-8"?>
<svg width="24px" height="24px" viewBox="0 0 24 24" version="1.1" xmlns="http://www.w3.org/2000/svg" xmlns:xlink="http://www.w3.org/1999/xlink">
    <!-- Generator: Sketch 47.1 (45422) - http://www.bohemiancoding.com/sketch -->
    <title>Icon/loop</title>
    <desc>Created with Sketch.</desc>
    <defs>
        <path d="M11.7291871,1.14701046 L7.72918711,5.14701046 L11.7291871,9.14701046 L11.7291871,6.14701046 C15.0291871,6.14701046 18,8.7 18,12 C18,13 17.7,14 17.3,14.8 L18.8,16.3 C19.5,15 20,13.6 20,12 C20,7.6 16.1291871,4.14701046 11.7291871,4.14701046 L11.7291871,1.14701046 Z M12,18 C8.7,18 6,15.3 6,12 C6,11 6.3,10 6.7,9.2 L5.2,7.7 C4.5,9 4,10.4 4,12 C4,16.4 7.6,20 12,20 L12,23 L16,19 L12,15 L12,18 L12,18 Z" id="path-1"></path>
    </defs>
    <g id="Symbols" stroke="none" stroke-width="1" fill="none" fill-rule="evenodd">
        <g id="Icon/loop">
            <mask id="mask-2" fill="white">
                <use xlink:href="#path-1"></use>
            </mask>
            <use id="Shape" fill="#0099D8" xlink:href="#path-1"></use>
        </g>
    </g>
</svg>
