<?xml version="1.0" encoding="UTF-8"?>
<svg width="24px" height="24px" viewBox="0 0 24 24" version="1.1" xmlns="http://www.w3.org/2000/svg" xmlns:xlink="http://www.w3.org/1999/xlink">
    <!-- Generator: Sketch 47.1 (45422) - http://www.bohemiancoding.com/sketch -->
    <title>Icon/notifications-none</title>
    <desc>Created with Sketch.</desc>
    <defs>
        <path d="M12.5,22 C13.6,22 14.5,21.1 14.5,20 L10.5,20 C10.5,21.1 11.4,22 12.5,22 L12.5,22 Z M19,16 L19,10.5 C19,7.4 16.9,4.9 14,4.2 L14,3.5 C14,2.7 13.3,2 12.5,2 C11.7,2 11,2.7 11,3.5 L11,4.2 C8.1,4.9 6,7.4 6,10.5 L6,16 L4,18 L4,19 L21,19 L21,18 L19,16 L19,16 Z M17,17 L8,17 L8,10.5 C8,8 10,6 12.5,6 C15,6 17,8 17,10.5 L17,17 L17,17 Z" id="path-1"></path>
    </defs>
    <g id="Symbols" stroke="none" stroke-width="1" fill="none" fill-rule="evenodd">
        <g id="Icon/notifications-none">
            <mask id="mask-2" fill="white">
                <use xlink:href="#path-1"></use>
            </mask>
            <use id="Shape" fill="#0099D8" xlink:href="#path-1"></use>
        </g>
    </g>
</svg>
