<?xml version="1.0" encoding="UTF-8"?>
<svg width="24px" height="24px" viewBox="0 0 24 24" version="1.1" xmlns="http://www.w3.org/2000/svg" xmlns:xlink="http://www.w3.org/1999/xlink">
    <!-- Generator: Sketch 47.1 (45422) - http://www.bohemiancoding.com/sketch -->
    <title>Icon/notifications-off</title>
    <desc>Created with Sketch.</desc>
    <defs>
        <path d="M11.5,22 C12.6,22 13.5,21.1 13.5,20 L9.5,20 C9.5,21.1 10.4,22 11.5,22 L11.5,22 Z M18,10.5 C18,7.4 15.9,4.9 13,4.2 L13,3.5 C13,2.7 12.3,2 11.5,2 C10.7,2 10,2.7 10,3.5 L10,4.2 C9.5,4.3 9,4.5 8.6,4.7 L18,14.1 L18,10.5 L18,10.5 Z M17.7,19 L19.7,21 L21,19.7 L4.3,3 L3,4.3 L5.9,7.2 C5.3,8.2 5,9.3 5,10.5 L5,16 L3,18 L3,19 L17.7,19 L17.7,19 Z" id="path-1"></path>
    </defs>
    <g id="Symbols" stroke="none" stroke-width="1" fill="none" fill-rule="evenodd">
        <g id="Icon/notifications-off">
            <mask id="mask-2" fill="white">
                <use xlink:href="#path-1"></use>
            </mask>
            <use id="Shape" fill="#0099D8" xlink:href="#path-1"></use>
        </g>
    </g>
</svg>
