<?xml version="1.0" encoding="UTF-8"?>
<svg width="24px" height="24px" viewBox="0 0 24 24" version="1.1" xmlns="http://www.w3.org/2000/svg" xmlns:xlink="http://www.w3.org/1999/xlink">
    <!-- Generator: Sketch 47.1 (45422) - http://www.bohemiancoding.com/sketch -->
    <title>Icon/person-add</title>
    <desc>Created with Sketch.</desc>
    <defs>
        <path d="M19.0409439,8.16857431 C19.0409439,5.96857431 17.2409439,4.16857431 15.0409439,4.16857431 C12.8409439,4.16857431 11.0409439,5.96857431 11.0409439,8.16857431 C11.0409439,10.3685743 12.8409439,12.1685743 15.0409439,12.1685743 C17.2409439,12.1685743 19.0409439,10.3685743 19.0409439,8.16857431 Z M6.27105317,11.0138423 L6.27105317,8.01384229 L4.27105317,8.01384229 L4.27105317,11.0138423 L1.27105317,11.0138423 L1.27105317,13.0138423 L4.27105317,13.0138423 L4.27105317,16.0138423 L6.27105317,16.0138423 L6.27105317,13.0138423 L9.27105317,13.0138423 L9.27105317,11.0138423 L6,11 L6.27105317,11.0138423 Z M7.14015439,18.5157373 L7.14015439,20.5157373 L22.8004046,20.5157373 L22.8004046,18.5157373 C22.8004046,15.8157373 17.7509827,14.5157373 15.0509827,14.5157373 C12.3509827,14.5157373 7.14015439,15.8157373 7.14015439,18.5157373 Z" id="path-1"></path>
    </defs>
    <g id="Symbols" stroke="none" stroke-width="1" fill="none" fill-rule="evenodd">
        <g id="Icon/person-add">
            <mask id="mask-2" fill="white">
                <use xlink:href="#path-1"></use>
            </mask>
            <use id="Shape" fill="#0099D8" xlink:href="#path-1"></use>
        </g>
    </g>
</svg>
