<?xml version="1.0" encoding="UTF-8"?>
<svg width="24px" height="24px" viewBox="0 0 24 24" version="1.1" xmlns="http://www.w3.org/2000/svg" xmlns:xlink="http://www.w3.org/1999/xlink">
    <!-- Generator: Sketch 47.1 (45422) - http://www.bohemiancoding.com/sketch -->
    <title>Icon/post-linkedin</title>
    <desc>Created with Sketch.</desc>
    <defs>
        <path d="M4.70814331,3.35260649 C3.74628416,3.35260649 3.07952543,3.98666421 3.06642418,4.96195208 L3.06642418,19.3059692 C3.04211426,20.2495422 3.74420166,20.9442139 4.69010925,20.9233246 L19.0168304,20.9233246 C19.9709778,20.9587555 20.6798553,20.2291565 20.6394958,19.3059692 L20.6394958,4.97816467 C20.6790591,4.02090074 19.9170737,3.30561515 19.0168304,3.35260649 L4.70814331,3.35260649 Z M8.4,18.3 L5.7,18.3 L5.7,10.2 L8.4,10.2 L8.4,18.3 L8.4,18.3 Z M7.05,8.67 C6.15,8.67 5.43,7.95 5.43,7.05 C5.43,6.15 6.15,5.43 7.05,5.43 C7.95,5.43 8.67,6.15 8.67,7.05 C8.67,7.95 7.95,8.67 7.05,8.67 L7.05,8.67 Z M18.3,18.3 L15.6,18.3 L15.6,13.53 C15.6,12.81 14.97,12.18 14.25,12.18 C13.53,12.18 12.9,12.81 12.9,13.53 L12.9,18.3 L10.2,18.3 L10.2,10.2 L12.9,10.2 L12.9,11.28 C13.35,10.56 14.34,10.02 15.15,10.02 C16.86,10.02 18.3,11.46 18.3,13.17 L18.3,18.3 L18.3,18.3 Z" id="path-1"></path>
    </defs>
    <g id="Symbols" stroke="none" stroke-width="1" fill="none" fill-rule="evenodd">
        <g id="Icon/post-linkedin">
            <mask id="mask-2" fill="white">
                <use xlink:href="#path-1"></use>
            </mask>
            <use id="Shape" fill="#0099D8" xlink:href="#path-1"></use>
        </g>
    </g>
</svg>
