<?xml version="1.0" encoding="UTF-8"?>
<svg width="24px" height="24px" viewBox="0 0 24 24" version="1.1" xmlns="http://www.w3.org/2000/svg" xmlns:xlink="http://www.w3.org/1999/xlink">
    <!-- Generator: Sketch 47.1 (45422) - http://www.bohemiancoding.com/sketch -->
    <title>Icon/post-pinterest</title>
    <desc>Created with Sketch.</desc>
    <defs>
        <path d="M4.70826843,3.36075719 C3.79292297,3.32029724 3.06072998,3.97676086 3.0758667,4.97996521 L3.0758667,19.3055878 C3.05839539,20.2869263 3.77388,20.9507141 4.68745422,20.9226074 L19.0243225,20.9226074 C19.9400024,20.9711151 20.6782379,20.2452087 20.644165,19.3055878 L20.644165,4.97996521 C20.6700897,3.82794189 19.7158813,3.29728699 19.0243225,3.36075719 L4.70826843,3.36075719 Z M12.9,15.78 C12.18,15.78 11.46,15.51 11.01,14.97 L10.11,17.85 L10.02,18.03 C9.84,18.3 9.57,18.48 9.21,18.48 C8.67,18.48 8.22,18.03 8.22,17.49 L8.22,17.4 L8.22,17.4 L8.31,17.22 L9.93,12.18 C9.93,12.18 9.75,11.64 9.75,10.83 C9.75,9.3 10.56,8.85 11.28,8.85 C11.91,8.85 12.54,9.12 12.54,10.02 C12.54,11.19 11.73,11.82 11.73,12.72 C11.73,13.35 12.27,13.89 12.9,13.89 C14.97,13.89 15.78,12.27 15.78,10.83 C15.78,8.85 14.07,7.23 12,7.23 C9.93,7.23 8.22,8.85 8.22,10.83 C8.22,11.46 8.4,12 8.67,12.54 C8.76,12.72 8.76,12.81 8.76,12.99 C8.76,13.53 8.4,13.89 7.86,13.89 C7.5,13.89 7.23,13.71 7.05,13.44 C6.6,12.63 6.33,11.73 6.33,10.74 C6.33,7.77 8.85,5.34 11.91,5.34 C14.97,5.34 17.49,7.77 17.49,10.74 C17.58,13.26 16.14,15.78 12.9,15.78 L12.9,15.78 Z" id="path-1"></path>
    </defs>
    <g id="Symbols" stroke="none" stroke-width="1" fill="none" fill-rule="evenodd">
        <g id="Icon/post-pinterest">
            <mask id="mask-2" fill="white">
                <use xlink:href="#path-1"></use>
            </mask>
            <use id="Shape" fill="#0099D8" xlink:href="#path-1"></use>
        </g>
    </g>
</svg>
