<?xml version="1.0" encoding="UTF-8"?>
<svg width="24px" height="24px" viewBox="0 0 24 24" version="1.1" xmlns="http://www.w3.org/2000/svg" xmlns:xlink="http://www.w3.org/1999/xlink">
    <!-- Generator: Sketch 47.1 (45422) - http://www.bohemiancoding.com/sketch -->
    <title>Icon/post-twitter</title>
    <desc>Created with Sketch.</desc>
    <defs>
        <path d="M4.70285034,3.35882627 C3.77458191,3.32809448 3.05332947,4.0072937 3.07774353,4.98018738 L3.07774353,19.3017273 C3.04052734,20.2786713 3.79042053,20.9676819 4.70285034,20.9220581 L19.0139221,20.9220581 C19.9431,20.9600983 20.6719818,20.2556152 20.6431029,19.3017273 L20.6431029,4.98018738 C20.6626434,4.02503967 19.9691315,3.33222961 19.0139221,3.35882627 L4.70285034,3.35882627 Z M17.13,9.57 C17.04,13.71 14.43,16.59 10.47,16.77 C8.85,16.86 7.68,16.32 6.6,15.69 C7.77,15.87 9.3,15.42 10.11,14.7 C8.94,14.61 8.22,13.98 7.86,12.99 C8.22,13.08 8.58,12.99 8.85,12.99 C7.77,12.63 7.05,12 6.96,10.56 C7.23,10.74 7.59,10.83 7.95,10.83 C7.14,10.38 6.6,8.67 7.23,7.59 C8.4,8.85 9.84,9.93 12.18,10.11 C11.55,7.59 14.97,6.24 16.32,7.95 C16.95,7.86 17.4,7.59 17.85,7.41 C17.67,8.04 17.31,8.4 16.86,8.76 C17.31,8.67 17.76,8.58 18.12,8.4 C18.03,8.85 17.58,9.21 17.13,9.57 L17.13,9.57 Z" id="path-1"></path>
    </defs>
    <g id="Symbols" stroke="none" stroke-width="1" fill="none" fill-rule="evenodd">
        <g id="Icon/post-twitter">
            <mask id="mask-2" fill="white">
                <use xlink:href="#path-1"></use>
            </mask>
            <use id="Shape" fill="#0099D8" xlink:href="#path-1"></use>
        </g>
    </g>
</svg>
