<?xml version="1.0" encoding="UTF-8"?>
<svg width="24px" height="24px" viewBox="0 0 24 24" version="1.1" xmlns="http://www.w3.org/2000/svg" xmlns:xlink="http://www.w3.org/1999/xlink">
    <!-- Generator: Sketch 47.1 (45422) - http://www.bohemiancoding.com/sketch -->
    <title>Icon/post-facebook</title>
    <desc>Created with Sketch.</desc>
    <defs>
        <path d="M4.69352722,3.35740662 C3.71180725,3.32925415 3.13330078,4.05163574 3.08078003,4.77026367 L3.08078003,19.3014679 C3.02148438,20.2363129 3.79547119,20.9897766 4.69352722,20.9223938 L19.021759,20.9223938 C20.0499115,20.9513092 20.6473541,20.2914679 20.6473541,19.3014679 L20.6473541,4.97948133 C20.6789856,4.05915833 19.9471588,3.31057739 19.021759,3.35740662 L4.69352722,3.35740662 Z M18.3,4.8 L18.3,7.5 L16.5,7.5 C15.96,7.5 15.6,7.86 15.6,8.4 L15.6,10.2 L18.3,10.2 L18.3,12.9 L15.6,12.9 L15.6,19.2 L12.9,19.2 L12.9,12.9 L11.1,12.9 L11.1,10.2 L12.9,10.2 L12.9,7.95 C12.9,6.24 14.34,4.8 16.05,4.8 L18.3,4.8 L18.3,4.8 Z" id="path-1"></path>
    </defs>
    <g id="Symbols" stroke="none" stroke-width="1" fill="none" fill-rule="evenodd">
        <g id="Icon/post-facebook">
            <mask id="mask-2" fill="white">
                <use xlink:href="#path-1"></use>
            </mask>
            <use id="Shape" fill="#0099D8" xlink:href="#path-1"></use>
        </g>
    </g>
</svg>
