<?xml version="1.0" encoding="UTF-8"?>
<svg width="24px" height="24px" viewBox="0 0 24 24" version="1.1" xmlns="http://www.w3.org/2000/svg" xmlns:xlink="http://www.w3.org/1999/xlink">
    <!-- Generator: Sketch 47.1 (45422) - http://www.bohemiancoding.com/sketch -->
    <title>Icon/post-instagram</title>
    <desc>Created with Sketch.</desc>
    <defs>
        <path d="M4.68628555,3.36286576 C3.73175415,3.30487862 3.0465532,4.07959669 3.07623633,4.97349829 L3.07623633,19.3042039 C3.05836298,20.2729398 3.75034578,20.9571385 4.70590211,20.925952 L19.0287067,20.925952 C19.9387612,20.9466316 20.6884231,20.2573215 20.643389,19.3042039 L20.643389,4.97349829 C20.6832388,4.28709983 20.1719497,3.32731881 19.0287067,3.36286576 L4.68628555,3.36286576 Z M12,8.4 C13.98,8.4 15.6,10.02 15.6,12 C15.6,13.98 13.98,15.6 12,15.6 C10.02,15.6 8.4,13.98 8.4,12 C8.4,10.02 10.02,8.4 12,8.4 L12,8.4 Z M5.25,19.2 C4.98,19.2 4.8,19.02 4.8,18.75 L4.8,11.1 L6.69,11.1 C6.6,11.37 6.6,11.73 6.6,12 C6.6,14.97 9.03,17.4 12,17.4 C14.97,17.4 17.4,14.97 17.4,12 C17.4,11.73 17.4,11.37 17.31,11.1 L19.2,11.1 L19.2,18.75 C19.2,19.02 19.02,19.2 18.75,19.2 L5.25,19.2 L5.25,19.2 Z M19.2,7.05 C19.2,7.32 19.02,7.5 18.75,7.5 L16.95,7.5 C16.68,7.5 16.5,7.32 16.5,7.05 L16.5,5.25 C16.5,4.98 16.68,4.8 16.95,4.8 L18.75,4.8 C19.02,4.8 19.2,4.98 19.2,5.25 L19.2,7.05 L19.2,7.05 Z" id="path-1"></path>
    </defs>
    <g id="Symbols" stroke="none" stroke-width="1" fill="none" fill-rule="evenodd">
        <g id="Icon/post-instagram">
            <mask id="mask-2" fill="white">
                <use xlink:href="#path-1"></use>
            </mask>
            <use id="Shape" fill="#0099D8" xlink:href="#path-1"></use>
        </g>
    </g>
</svg>
