<?xml version="1.0" encoding="UTF-8"?>
<svg width="24px" height="24px" viewBox="0 0 24 24" version="1.1" xmlns="http://www.w3.org/2000/svg" xmlns:xlink="http://www.w3.org/1999/xlink">
    <!-- Generator: Sketch 47.1 (45422) - http://www.bohemiancoding.com/sketch -->
    <title>Icon/post-tumblr</title>
    <desc>Created with Sketch.</desc>
    <defs>
        <path d="M4.8,3 C3.81,3 3,3.81 3,4.8 L3,19.2 C3,20.19 3.81,21 4.8,21 L19.2,21 C20.19,21 21,20.19 21,19.2 L20.8298404,4.61185707 C20.8432376,3.64126075 20.1220004,2.96119178 19.2,3 L4.8,3 Z M15.6,11.1 L12.9,11.1 L12.9,14.61 C12.9,15.24 12.99,15.6 13.89,15.6 L15.6,15.6 L15.6,18.3 C15.6,18.3 14.7,18.39 13.71,18.39 C11.37,18.39 10.2,16.95 10.2,15.33 L10.2,11.1 L8.4,11.1 L8.4,8.58 C10.56,8.4 10.74,6.78 10.92,5.7 L12.9,5.7 L12.9,8.4 L15.6,8.4 L15.6,11.1 L15.6,11.1 Z" id="path-1"></path>
    </defs>
    <g id="Symbols" stroke="none" stroke-width="1" fill="none" fill-rule="evenodd">
        <g id="Icon/post-tumblr">
            <mask id="mask-2" fill="white">
                <use xlink:href="#path-1"></use>
            </mask>
            <use id="Shape" fill="#0099D8" xlink:href="#path-1"></use>
        </g>
    </g>
</svg>
