<?xml version="1.0" encoding="UTF-8"?>
<svg width="24px" height="24px" viewBox="0 0 24 24" version="1.1" xmlns="http://www.w3.org/2000/svg" xmlns:xlink="http://www.w3.org/1999/xlink">
    <!-- Generator: Sketch 47.1 (45422) - http://www.bohemiancoding.com/sketch -->
    <title>Icon/post-gplus</title>
    <desc>Created with Sketch.</desc>
    <defs>
        <path d="M11.28,9.21 C11.28,8.31 10.74,6.51 9.39,6.51 C8.85,6.51 8.22,6.87 8.22,8.04 C8.22,9.12 8.76,10.65 10.02,10.65 C10.02,10.65 11.28,10.56 11.28,9.21 L11.28,9.21 Z M10.74,13.62 L10.47,13.62 L10.47,13.62 C10.2,13.62 9.39,13.71 8.85,13.89 C8.22,14.07 7.5,14.52 7.5,15.42 C7.5,16.41 8.4,17.4 10.2,17.4 C11.55,17.4 12.36,16.5 12.36,15.6 C12.36,14.97 11.91,14.52 10.74,13.62 L10.74,13.62 Z M4.70725171,3.36456903 C3.71678572,3.32904246 3.04575483,4.0061754 3.07856697,4.9833515 L3.07856697,19.2959119 C3.02590686,20.1670729 3.69070539,20.9330657 4.68177942,20.9268116 L19.0306047,20.9268116 C20.0268097,20.9517975 20.6756744,20.1965942 20.6392059,19.3137817 L20.6392059,4.9833515 C20.6707458,4.05097961 19.9550934,3.30548096 19.0306047,3.36456903 L4.70725171,3.36456903 Z M9.39,18.48 C6.87,18.48 5.7,17.04 5.7,15.78 C5.7,15.33 5.79,14.34 7.05,13.62 C7.77,13.17 8.67,12.9 9.84,12.81 C9.66,12.63 9.57,12.36 9.57,11.91 C9.57,11.73 9.57,11.64 9.66,11.46 L9.3,11.46 C7.5,11.46 6.42,10.11 6.42,8.76 C6.42,7.23 7.59,5.52 10.11,5.52 L13.89,5.52 L13.62,5.79 L12.99,6.42 L12.9,6.51 L12.27,6.51 C12.63,6.87 13.08,7.5 13.08,8.49 C13.08,9.75 12.45,10.38 11.64,10.92 C11.46,11.01 11.28,11.28 11.28,11.55 C11.28,11.82 11.46,12 11.64,12.09 C11.73,12.18 11.91,12.27 12.09,12.36 C12.81,12.9 13.8,13.53 13.8,14.97 C13.8,16.59 12.63,18.48 9.39,18.48 L9.39,18.48 Z M18.3,12 L16.5,12 L16.5,13.8 L15.6,13.8 L15.6,12 L13.8,12 L13.8,11.1 L15.6,11.1 L15.6,9.3 L16.5,9.3 L16.5,11.1 L18.3,11.1 L18.3,12 L18.3,12 Z" id="path-1"></path>
    </defs>
    <g id="Symbols" stroke="none" stroke-width="1" fill="none" fill-rule="evenodd">
        <g id="Icon/post-gplus">
            <mask id="mask-2" fill="white">
                <use xlink:href="#path-1"></use>
            </mask>
            <use id="Shape" fill="#0099D8" xlink:href="#path-1"></use>
        </g>
    </g>
</svg>
