<?xml version="1.0" encoding="UTF-8"?>
<svg width="24px" height="24px" viewBox="0 0 24 24" version="1.1" xmlns="http://www.w3.org/2000/svg" xmlns:xlink="http://www.w3.org/1999/xlink">
    <!-- Generator: Sketch 47.1 (45422) - http://www.bohemiancoding.com/sketch -->
    <title>Icon/print</title>
    <desc>Created with Sketch.</desc>
    <defs>
        <path d="M5.01196873,8 C3.31196873,8 2.01445824,9.3 2.01445824,11 L2.01445824,16.8642472 L6,17 L6,20.9260992 L18,20.9260992 L18,17 L22,17 L22,11 C22,9.3 20.7,8 19,8 L5.01196873,8 Z M16,19 L8,19 L8,14 L16,14 L16,19 L16,19 Z M19,12 C18.4,12 18,11.6 18,11 C18,10.4 18.4,10 19,10 C19.6,10 20,10.4 20,11 C20,11.6 19.6,12 19,12 L19,12 Z M18.0144582,3.35127264 L6.01445824,3.35127264 L6.01445824,7 L18.0144582,7 L18.0144582,3 L18.0144582,3.35127264 Z" id="path-1"></path>
    </defs>
    <g id="Symbols" stroke="none" stroke-width="1" fill="none" fill-rule="evenodd">
        <g id="Icon/print">
            <mask id="mask-2" fill="white">
                <use xlink:href="#path-1"></use>
            </mask>
            <use id="Shape" fill="#0099D8" xlink:href="#path-1"></use>
        </g>
    </g>
</svg>
