<?xml version="1.0" encoding="UTF-8"?>
<svg width="24px" height="25px" viewBox="0 0 24 25" version="1.1" xmlns="http://www.w3.org/2000/svg" xmlns:xlink="http://www.w3.org/1999/xlink">
    <!-- Generator: Sketch 47.1 (45422) - http://www.bohemiancoding.com/sketch -->
    <title>Icon/queue</title>
    <desc>Created with Sketch.</desc>
    <defs>
        <path d="M3,6 L1,6 L1,22 C1,23.1 1.9,24 3,24 L19,24 L19,22 L3,22 L3,6 L3,6 Z M21,2 L7,2 C5.9,2 5,2.9 5,4 L5,18 C5,19.1 5.9,20 7,20 L21,20 C22.1,20 23,19.1 23,18 L23,4 C23,2.9 22.1,2 21,2 L21,2 Z M19,12 L15,12 L15,16 L13,16 L13,12 L9,12 L9,10 L13,10 L13,6 L15,6 L15,10 L19,10 L19,12 L19,12 Z" id="path-1"></path>
    </defs>
    <g id="Symbols" stroke="none" stroke-width="1" fill="none" fill-rule="evenodd">
        <g id="Icon/queue">
            <mask id="mask-2" fill="white">
                <use xlink:href="#path-1"></use>
            </mask>
            <use id="Shape" fill="#0099D8" xlink:href="#path-1"></use>
        </g>
    </g>
</svg>
