<?xml version="1.0" encoding="UTF-8"?>
<svg width="24px" height="24px" viewBox="0 0 24 24" version="1.1" xmlns="http://www.w3.org/2000/svg" xmlns:xlink="http://www.w3.org/1999/xlink">
    <!-- Generator: Sketch 47.1 (45422) - http://www.bohemiancoding.com/sketch -->
    <title>Icon/report</title>
    <desc>Created with Sketch.</desc>
    <defs>
        <path d="M8.3,3.16884887 L2.88654049,8.38483387 L2.88654049,15.8848339 L8.2,21.0929915 L15.7,21.0929915 L20.8422926,15.8 L20.8422926,8.4 L15.7,3.16884887 L8.3,3.16884887 Z M12,17.3 C11.3,17.3 10.7,16.7 10.7,16 C10.7,15.3 11.3,14.7 12,14.7 C12.7,14.7 13.3,15.3 13.3,16 C13.3,16.7 12.7,17.3 12,17.3 L12,17.3 Z M13,13 L11,13 L11,7 L13,7 L13,13 L13,13 Z" id="path-1"></path>
    </defs>
    <g id="Symbols" stroke="none" stroke-width="1" fill="none" fill-rule="evenodd">
        <g id="Icon/report">
            <mask id="mask-2" fill="white">
                <use xlink:href="#path-1"></use>
            </mask>
            <use id="Shape" fill="#0099D8" xlink:href="#path-1"></use>
        </g>
    </g>
</svg>
