<?xml version="1.0" encoding="UTF-8"?>
<svg width="24px" height="24px" viewBox="0 0 24 24" version="1.1" xmlns="http://www.w3.org/2000/svg" xmlns:xlink="http://www.w3.org/1999/xlink">
    <!-- Generator: Sketch 47.1 (45422) - http://www.bohemiancoding.com/sketch -->
    <title>Icon/ring-volume</title>
    <desc>Created with Sketch.</desc>
    <defs>
        <path d="M8.05666959,15.6048287 L8.05958248,18.4506092 C8.05997969,18.8386702 7.86628021,19.1618557 7.54296227,19.2262015 C6.57327324,19.6779463 5.66845964,20.3237878 4.82852148,21.1637259 C4.44085772,21.5513897 3.92344308,21.5508601 3.53498489,21.1624019 L1.33372182,18.9611388 C0.945263627,18.5726806 0.944734012,18.055266 1.33239778,17.6676022 C7.40579677,11.5942032 16.5804332,11.5804332 22.6662782,17.6662782 C23.0547364,18.0547364 23.055266,18.572151 22.6676022,18.9598148 L20.4062303,21.2211867 C20.0185665,21.6088505 19.5011519,21.6083209 19.1126937,21.2198627 C18.3357773,20.4429463 17.4296397,19.7952512 16.3942808,19.2767773 C16.135441,19.1471589 15.9410795,18.8235761 15.8760717,18.5001258 L15.9377694,15.5897346 C13.2204158,14.6814785 10.8369126,14.7668766 8.05666959,15.6048287 Z M21.0420136,7.56517494 L19.6420136,6.16517494 L16.0420136,9.76517494 L17.4420136,11.1651749 C17.4420136,11.0651749 20.8420136,7.56517494 21.0420136,7.56517494 L21.0420136,7.56517494 Z M13.0420136,3.16517494 L11.0420136,3.16517494 L11.0420136,8 L13.0420136,8 L13.0420136,3.16517494 Z M6.64201365,11.1651749 L8.04201365,9.76517494 L4.54201365,6.16517494 L3.04201365,7.66517494 C3.24201365,7.66517494 6.64201365,11.1651749 6.64201365,11.1651749 L6.64201365,11.1651749 Z" id="path-1"></path>
    </defs>
    <g id="Symbols" stroke="none" stroke-width="1" fill="none" fill-rule="evenodd">
        <g id="Icon/ring-volume">
            <mask id="mask-2" fill="white">
                <use xlink:href="#path-1"></use>
            </mask>
            <use id="Shape" fill="#0099D8" xlink:href="#path-1"></use>
        </g>
    </g>
</svg>
