<?xml version="1.0" encoding="UTF-8"?>
<svg width="24px" height="24px" viewBox="0 0 24 24" version="1.1" xmlns="http://www.w3.org/2000/svg" xmlns:xlink="http://www.w3.org/1999/xlink">
    <!-- Generator: Sketch 47.1 (45422) - http://www.bohemiancoding.com/sketch -->
    <title>Icon/settings</title>
    <desc>Created with Sketch.</desc>
    <defs>
        <path d="M19.5,12 C19.5,11.6 19.5,11.3 19.4,11 L21.5,9.3 C21.7,9.1 21.7,8.9 21.6,8.7 L19.6,5.2 C19.5,5.1 19.3,5 19,5.1 L16.5,6.1 C16,5.7 15.4,5.4 14.8,5.1 L14.4601746,2.5 C14.434082,2.0509491 14.1187791,2 13.972062,2 L10,2 C9.8,2 9.54378583,2.10352374 9.5,2.4 L9.1,5.1 C8.5,5.3 8,5.7 7.4,6.1 L5,5.1 C4.7,5 4.5,5.1 4.3,5.3 L2.43457784,8.66227809 C2.33457784,8.76227809 2.3,9.2 2.5,9.4 L4.6,11 C4.6,11.3 4.5,11.6 4.5,12 C4.5,12.4 4.5,12.7 4.6,13 L2.5,14.7 C2.3,14.9 2.3,15.1 2.4,15.3 L4.4,18.8 C4.5,18.9 4.7,19 5,18.9 L7.5,17.9 C8,18.3 8.6,18.6 9.2,18.9 L9.6,21.5 C9.6,21.7 9.8,21.9 10.1,21.9 L14.1,21.9 C14.3,21.9 14.6,21.7 14.6,21.5 L15,18.9 C15.6,18.6 16.2,18.3 16.7,17.9 L19.2,18.9 C19.4,19 19.7,18.9 19.8,18.7 L21.8,15.2 C21.9,15 21.9,14.7 21.7,14.6 L19.4,13 C19.4,12.7 19.5,12.4 19.5,12 Z M12,15.5 C10.1,15.5 8.5,13.9 8.5,12 C8.5,10.1 10.1,8.5 12,8.5 C13.9,8.5 15.5,10.1 15.5,12 C15.5,13.9 13.9,15.5 12,15.5 L12,15.5 Z" id="path-1"></path>
    </defs>
    <g id="Symbols" stroke="none" stroke-width="1" fill="none" fill-rule="evenodd">
        <g id="Icon/settings">
            <mask id="mask-2" fill="white">
                <use xlink:href="#path-1"></use>
            </mask>
            <use id="Shape" fill="#0099D8" xlink:href="#path-1"></use>
        </g>
    </g>
</svg>
