<?xml version="1.0" encoding="UTF-8"?>
<svg width="24px" height="24px" viewBox="0 0 24 24" version="1.1" xmlns="http://www.w3.org/2000/svg" xmlns:xlink="http://www.w3.org/1999/xlink">
    <!-- Generator: Sketch 47.1 (45422) - http://www.bohemiancoding.com/sketch -->
    <title>Icon/shopping-cart</title>
    <desc>Created with Sketch.</desc>
    <defs>
        <path d="M8,18 C6.9,18 6,18.9 6,20 C6,21.1 6.9,22 8,22 C9.1,22 10,21.1 10,20 C10,18.9 9.1,18 8,18 L8,18 Z M2,2 L2,4 L4,4 L7.6,11.6 L6.2,14 C6.1,14.3 6,14.7 6,15 C6,16.1 6.9,17 8,17 L20,17 L20,15 L8.4,15 C8.3,15 8.2,14.9 8.2,14.8 L8.2,14.7 L9.1,13 L16.5,13 C17.3,13 17.9,12.6 18.2,12 L21.8,5.5 C22,5.3 22,5.2 22,5 C22,4.4 21.6,4 21,4 L6.2,4 L5.3,2 L2,2 L2,2 Z M18,18 C16.9,18 16,18.9 16,20 C16,21.1 16.9,22 18,22 C19.1,22 20,21.1 20,20 C20,18.9 19.1,18 18,18 L18,18 Z" id="path-1"></path>
    </defs>
    <g id="Symbols" stroke="none" stroke-width="1" fill="none" fill-rule="evenodd">
        <g id="Icon/shopping-cart">
            <mask id="mask-2" fill="white">
                <use xlink:href="#path-1"></use>
            </mask>
            <use id="Shape" fill="#0099D8" xlink:href="#path-1"></use>
        </g>
    </g>
</svg>
