<?xml version="1.0" encoding="UTF-8"?>
<svg width="24px" height="24px" viewBox="0 0 24 24" version="1.1" xmlns="http://www.w3.org/2000/svg" xmlns:xlink="http://www.w3.org/1999/xlink">
    <!-- Generator: Sketch 47.1 (45422) - http://www.bohemiancoding.com/sketch -->
    <title>Icon/video-youtube</title>
    <desc>Created with Sketch.</desc>
    <defs>
        <path d="M20,4.4 C19.4,4.2 15.7,4 12,4 C8.3,4 4.6,4.2 4,4.4 C2.4,4.9 2,8.4 2,12 C2,15.6 2.4,19.1 4,19.6 C4.6,19.8 8.3,20 12,20 C15.7,20 19.4,19.8 20,19.6 C21.6,19.1 22,15.6 22,12 C22,8.4 21.6,4.9 20,4.4 L20,4.4 Z M10,16.5 L10,7.5 L16,12 L10,16.5 L10,16.5 Z" id="path-1"></path>
    </defs>
    <g id="Symbols" stroke="none" stroke-width="1" fill="none" fill-rule="evenodd">
        <g id="Icon/video-youtube">
            <mask id="mask-2" fill="white">
                <use xlink:href="#path-1"></use>
            </mask>
            <use id="Shape" fill="#0099D8" xlink:href="#path-1"></use>
        </g>
    </g>
</svg>
