<?xml version="1.0" encoding="UTF-8"?>
<svg width="24px" height="24px" viewBox="0 0 24 24" version="1.1" xmlns="http://www.w3.org/2000/svg" xmlns:xlink="http://www.w3.org/1999/xlink">
    <!-- Generator: Sketch 47.1 (45422) - http://www.bohemiancoding.com/sketch -->
    <title>Icon/visibility</title>
    <desc>Created with Sketch.</desc>
    <defs>
        <path d="M1.28211206,12.1549226 C2.98211206,16.5549226 7,19.5177857 12,19.5177857 C17,19.5177857 20.753518,16.5549226 22.453518,12.1549226 C20.753518,7.75492261 17,5 12,5 C7,5 2.98211206,7.75492261 1.28211206,12.1549226 Z M7,12.5 C7,9.7 9.2,7.5 12,7.5 C14.8,7.5 17,9.7 17,12.5 C17,15.3 14.8,17.5 12,17.5 C9.2,17.5 7,15.3 7,12.5 Z M9,12.5 C9,14.2 10.3,15.5 12,15.5 C13.7,15.5 15,14.2 15,12.5 C15,10.8 13.7,9.5 12,9.5 C10.3,9.5 9,10.8 9,12.5 Z" id="path-1"></path>
    </defs>
    <g id="Symbols" stroke="none" stroke-width="1" fill="none" fill-rule="evenodd">
        <g id="Icon/visibility">
            <mask id="mask-2" fill="white">
                <use xlink:href="#path-1"></use>
            </mask>
            <use id="Shape" fill="#0099D8" xlink:href="#path-1"></use>
        </g>
    </g>
</svg>
