<?xml version="1.0" encoding="UTF-8"?>
<svg width="24px" height="24px" viewBox="0 0 24 24" version="1.1" xmlns="http://www.w3.org/2000/svg" xmlns:xlink="http://www.w3.org/1999/xlink">
    <!-- Generator: Sketch 47.1 (45422) - http://www.bohemiancoding.com/sketch -->
    <title>Icon/volume-up</title>
    <desc>Created with Sketch.</desc>
    <defs>
        <path d="M3,15 L7,15 L12,20.1634776 L12,4 L7,9 L3,9 L3,15 Z M16.5,12 C16.5,10.2 15.5,8.7 14,8 L14,16 C15.5,15.3 16.5,13.8 16.5,12 L16.5,12 Z M14,3.2 L14,5.3 C16.9,6.2 19,8.8 19,12 C19,15.2 16.9,17.8 14,18.7 L14,20.8 C18,19.9 21,16.3 21,12 C21,7.7 18,4.1 14,3.2 L14,3.2 Z" id="path-1"></path>
    </defs>
    <g id="Symbols" stroke="none" stroke-width="1" fill="none" fill-rule="evenodd">
        <g id="Icon/volume-up">
            <mask id="mask-2" fill="white">
                <use xlink:href="#path-1"></use>
            </mask>
            <use id="Shape" fill="#0099D8" xlink:href="#path-1"></use>
        </g>
    </g>
</svg>
